<svg xmlns="http://www.w3.org/2000/svg" width="15.885" height="9.472" viewBox="0 0 15.885 9.472">
  <g id="Union_1" data-name="Union 1" transform="translate(-1073.962 -9.978)">
    <path d="M 1081.900390625 18.9500675201416 C 1081.776123046875 18.9500675201416 1081.657836914062 18.89704895019531 1081.567260742188 18.80076789855957 L 1074.61474609375 11.42161846160889 C 1074.41162109375 11.20623779296875 1074.41162109375 10.842698097229 1074.614501953125 10.62754821777344 C 1074.70556640625 10.53088760375977 1074.823852539062 10.47784805297852 1074.947998046875 10.47784805297852 C 1075.072265625 10.47784805297852 1075.19091796875 10.53100776672363 1075.281860351562 10.62754821777344 L 1081.545654296875 17.27506828308105 L 1081.909545898438 17.66129875183105 L 1082.2734375 17.27504730224609 L 1088.535888671875 10.62800788879395 C 1088.625854492188 10.5326681137085 1088.7431640625 10.48007774353027 1088.8662109375 10.48007774353027 C 1088.989013671875 10.48007774353027 1089.106201171875 10.53258800506592 1089.195922851562 10.62792778015137 C 1089.396484375 10.8411283493042 1089.396484375 11.20165824890137 1089.19580078125 11.4150276184082 L 1082.237426757812 18.79988861083984 C 1082.190551757812 18.84942817687988 1082.136596679688 18.88751792907715 1082.077270507812 18.91261863708496 C 1082.018432617188 18.93798828125 1081.960205078125 18.9500675201416 1081.900390625 18.9500675201416 Z" stroke="none"/>
    <path d="M 1081.901977539062 18.42681503295898 L 1088.831665039062 11.07240772247314 C 1088.840942382812 11.06249904632568 1088.846069335938 11.04519271850586 1088.846923828125 11.027099609375 L 1082.637451171875 17.61791801452637 L 1081.909545898438 18.39040756225586 L 1081.181762695312 17.61796760559082 L 1074.961791992188 11.0170783996582 C 1074.96044921875 11.04047203063965 1074.965942382812 11.06527900695801 1074.978637695312 11.07873821258545 L 1081.901977539062 18.42681503295898 M 1081.900390625 19.4500675201416 C 1081.647705078125 19.4500675201416 1081.3955078125 19.34785842895508 1081.203125 19.14346885681152 L 1074.250854492188 11.76448822021484 C 1073.865234375 11.35567760467529 1073.865234375 10.69325828552246 1074.250854492188 10.28445816040039 C 1074.443237304688 10.08005332946777 1074.695556640625 9.977850914001465 1074.947998046875 9.977850914001465 C 1075.200317382812 9.977850914001465 1075.452880859375 10.08005332946777 1075.645629882812 10.28445816040039 L 1081.909545898438 16.93217849731445 L 1088.171997070312 10.28513813018799 C 1088.36376953125 10.08176326751709 1088.614990234375 9.980075836181641 1088.8662109375 9.980075836181641 C 1089.117309570312 9.980075836181641 1089.368408203125 10.08176326751709 1089.559936523438 10.28513813018799 C 1089.942626953125 10.69188785552979 1089.942626953125 11.35089778900146 1089.559936523438 11.75764846801758 L 1082.601318359375 19.14277839660645 C 1082.504150390625 19.24562835693359 1082.391967773438 19.32237815856934 1082.27197265625 19.37312889099121 C 1082.1533203125 19.42440795898438 1082.026611328125 19.4500675201416 1081.900390625 19.4500675201416 Z" stroke="none"/>
  </g>
</svg>
